<svg xmlns="http://www.w3.org/2000/svg" viewBox="0 0 24 24" fill="#61DAFB">
  <path d="M12 1a2 2 0 0 1 2 2v1.528c.597.207 1.168.485 1.707.828l.867-.867a2 2 0 1 1 2.828 2.828l-.867.867c.343.539.621 1.11.828 1.707H21a2 2 0 1 1 0 4h-1.528c-.207.597-.485 1.168-.828 1.707l.867.867a2 2 0 1 1-2.828 2.828l-.867-.867c-.539.343-1.11.621-1.707.828V21a2 2 0 1 1-4 0v-1.528c-.597-.207-1.168-.485-1.707-.828l-.867.867a2 2 0 1 1-2.828-2.828l.867-.867c-.343-.539-.621-1.11-.828-1.707H3a2 2 0 1 1 0-4h1.528c.207-.597.485-1.168.828-1.707l-.867-.867a2 2 0 1 1 2.828-2.828l.867.867c.539-.343 1.11-.621 1.707-.828V3a2 2 0 0 1 2-2zm0 7a4 4 0 1 0 0 8 4 4 0 0 0 0-8z"/>
</svg>
